<?xml version="1.0" standalone="no"?>
<!DOCTYPE svg PUBLIC "-//W3C//DTD SVG 20010904//EN"
 "http://www.w3.org/TR/2001/REC-SVG-20010904/DTD/svg10.dtd">
<svg version="1.0" xmlns="http://www.w3.org/2000/svg"
 width="1200.000000pt" height="1200.000000pt" viewBox="0 0 1200.000000 1200.000000"
 preserveAspectRatio="xMidYMid meet">
<metadata>
Created by potrace 1.14, written by Peter Selinger 2001-2017
</metadata>
<g transform="translate(0.000000,1200.000000) scale(0.100000,-0.100000)"
fill="#000000" stroke="none">
<path d="M2820 11994 c-275 -27 -386 -45 -558 -88 -232 -59 -467 -150 -682
-266 -807 -435 -1380 -1228 -1534 -2125 -42 -249 -41 -140 -41 -3510 0 -3461
-2 -3301 51 -3575 115 -591 398 -1123 825 -1549 481 -481 1083 -773 1779 -863
156 -20 6524 -20 6680 0 505 65 945 230 1347 504 641 438 1093 1112 1247 1860
65 314 60 24 64 3518 2 2281 0 3215 -8 3319 -57 731 -357 1385 -872 1899 -430
431 -962 713 -1558 828 -271 51 -33 48 -3500 50 -1763 0 -3221 -1 -3240 -2z
m1500 -2405 c24 -5 412 -163 862 -349 l818 -339 817 338 c450 186 842 344 871
350 152 32 297 -12 407 -124 53 -53 129 -180 675 -1130 338 -588 638 -1115
665 -1170 58 -115 106 -256 137 -400 29 -136 31 -444 5 -580 -71 -359 -230
-658 -479 -902 -51 -51 -117 -110 -146 -133 -28 -23 -50 -45 -48 -48 2 -4 124
-324 271 -712 147 -388 269 -707 271 -709 2 -2 86 30 186 72 108 45 211 81
252 88 209 36 438 -64 554 -242 22 -33 45 -80 52 -104 11 -38 10 -48 -6 -81
-12 -23 -33 -45 -54 -55 -19 -10 -541 -228 -1160 -485 -842 -350 -1136 -468
-1167 -468 -90 -2 -138 98 -138 284 0 83 5 119 23 172 31 88 85 171 157 236
67 62 106 83 310 168 82 34 151 67 153 72 2 7 -531 1431 -543 1450 -1 1 -46
-2 -99 -8 -294 -30 -700 72 -978 246 -319 200 -563 511 -676 859 -16 50 -91
323 -168 608 -76 284 -141 517 -144 517 -3 0 -68 -233 -144 -517 -77 -285
-152 -558 -168 -608 -96 -298 -297 -580 -543 -765 -115 -86 -154 -110 -276
-171 -255 -128 -587 -195 -836 -169 -53 6 -97 9 -98 8 -1 -2 -118 -309 -259
-683 -142 -374 -267 -701 -276 -726 l-18 -46 141 -58 c230 -95 274 -120 352
-199 81 -82 128 -170 152 -280 27 -127 1 -295 -57 -359 -24 -27 -35 -32 -72
-31 -33 0 -296 105 -1168 468 -619 257 -1141 475 -1160 485 -45 23 -73 74 -65
121 18 98 150 251 268 308 99 48 185 65 287 59 95 -6 129 -17 343 -106 82 -35
150 -61 151 -59 2 2 125 324 273 716 l270 713 -71 58 c-318 261 -522 605 -602
1016 -27 140 -25 436 4 578 26 125 70 262 118 367 19 41 319 570 667 1175 560
975 639 1107 692 1161 60 61 137 105 212 123 53 12 149 13 203 0z"/>
<path d="M4067 8431 c-136 -235 -249 -435 -252 -443 -5 -12 74 -48 352 -164
197 -81 549 -228 783 -325 278 -115 427 -173 431 -165 11 20 262 976 258 980
-6 6 -1309 546 -1317 546 -4 0 -119 -193 -255 -429z"/>
<path d="M7015 8589 c-357 -149 -652 -273 -654 -275 -4 -4 247 -960 258 -980
4 -8 133 41 371 140 201 84 553 230 783 325 326 135 417 177 412 189 -17 44
-501 872 -510 871 -5 0 -302 -122 -660 -270z"/>
</g>
</svg>
