<?xml version="1.0" encoding="UTF-8" standalone="no"?>
<!DOCTYPE svg PUBLIC "-//W3C//DTD SVG 1.1//EN" "http://www.w3.org/Graphics/SVG/1.1/DTD/svg11.dtd">
<svg width="100%" height="100%" viewBox="0 0 600 600" version="1.1" xmlns="http://www.w3.org/2000/svg" xmlns:xlink="http://www.w3.org/1999/xlink" xml:space="preserve" xmlns:serif="http://www.serif.com/" style="fill-rule:evenodd;clip-rule:evenodd;stroke-linejoin:round;stroke-miterlimit:1.5;">
    <circle cx="300" cy="300" r="300" style="fill:rgb(171,144,144);fill-opacity:0;"/>
    <path d="M300,0C465.575,0 600,134.425 600,300C600,465.575 465.575,600 300,600C134.425,600 0,465.575 0,300C0,134.425 134.425,0 300,0ZM300,20C454.536,20 580,145.464 580,300C580,454.536 454.536,580 300,580C145.464,580 20,454.536 20,300C20,145.464 145.464,20 300,20Z" style="fill:rgb(60,60,60);"/>
    <g transform="matrix(0.5,0,0,0.51355,150,146.163)">
        <path d="M300,7.472L300,591.641" style="fill:none;stroke:rgb(60,60,60);stroke-width:39.46px;"/>
        <path d="M0,300L600,300" style="fill:none;stroke:rgb(60,60,60);stroke-width:39.46px;"/>
    </g>
</svg>
